<svg width="271" height="44" viewBox="0 0 271 44" fill="none" xmlns="http://www.w3.org/2000/svg">
    <path
        d="M180.51 23.0039L187.543 4.72887H192.444L199.477 23.0039H195.188L193.883 19.4075H185.918L184.612 23.0039H180.51ZM187.063 16.2107H192.737L191.112 11.7085C191.041 11.5132 190.953 11.2823 190.846 11.0159C190.757 10.7317 190.66 10.4209 190.553 10.0835C190.446 9.74607 190.34 9.41751 190.233 9.09783C190.145 8.76039 190.056 8.45847 189.967 8.19207H189.807C189.718 8.52951 189.603 8.92911 189.461 9.39087C189.319 9.83487 189.177 10.27 189.035 10.6962C188.892 11.1047 188.777 11.4421 188.688 11.7085L187.063 16.2107ZM201.652 23.0039V4.72887H209.111C211.012 4.72887 212.628 5.05743 213.96 5.71455C215.292 6.37167 216.313 7.37511 217.023 8.72487C217.752 10.0569 218.116 11.7707 218.116 13.8664C218.116 15.9443 217.752 17.6581 217.023 19.0079C216.313 20.3577 215.292 21.3611 213.96 22.0182C212.628 22.6753 211.012 23.0039 209.111 23.0039H201.652ZM205.621 19.7272H209.085C209.884 19.7272 210.594 19.6117 211.216 19.3809C211.837 19.15 212.353 18.8125 212.761 18.3685C213.169 17.9068 213.48 17.3385 213.693 16.6636C213.907 15.9709 214.013 15.1717 214.013 14.266V13.4668C214.013 12.561 213.907 11.7707 213.693 11.0958C213.48 10.4032 213.169 9.83487 212.761 9.39087C212.353 8.92911 211.837 8.58279 211.216 8.35191C210.594 8.10327 209.884 7.97895 209.085 7.97895H205.621V19.7272ZM221.346 23.0039V4.72887H227.393L230.004 14.0795C230.11 14.4169 230.217 14.8165 230.324 15.2783C230.43 15.7401 230.537 16.2018 230.643 16.6636C230.768 17.1076 230.865 17.5072 230.936 17.8624H231.149C231.185 17.5605 231.247 17.2053 231.336 16.7968C231.425 16.3705 231.522 15.9177 231.629 15.4381C231.736 14.9586 231.851 14.4969 231.975 14.0529L234.586 4.72887H240.527V23.0039H236.611V14.3459C236.611 13.5467 236.611 12.7475 236.611 11.9483C236.628 11.1313 236.646 10.4209 236.664 9.81711C236.699 9.21327 236.717 8.82255 236.717 8.64495H236.504C236.469 8.84031 236.38 9.20439 236.238 9.73719C236.113 10.2522 235.971 10.8028 235.811 11.3889C235.669 11.9749 235.536 12.4811 235.412 12.9073L232.561 23.0039H229.098L226.221 12.934C226.114 12.561 225.99 12.1259 225.848 11.6286C225.724 11.1136 225.599 10.5897 225.475 10.0569C225.369 9.50631 225.262 9.03567 225.155 8.64495H224.942C224.96 9.12447 224.978 9.70167 224.996 10.3765C225.013 11.0337 225.031 11.7174 225.049 12.4278C225.067 13.1205 225.076 13.7598 225.076 14.3459V23.0039H221.346ZM244.578 23.0039V4.72887H248.547V23.0039H244.578ZM252.591 23.0039V4.72887H256.24L263.593 14.5857C263.7 14.71 263.833 14.8876 263.993 15.1185C264.152 15.3316 264.303 15.5447 264.445 15.7578C264.588 15.9709 264.685 16.1397 264.739 16.264H264.872C264.872 15.9621 264.872 15.669 264.872 15.3849C264.872 15.0829 264.872 14.8165 264.872 14.5857V4.72887H268.628V23.0039H264.978L257.466 12.9073C257.288 12.6587 257.102 12.3834 256.906 12.0815C256.711 11.7796 256.569 11.5487 256.48 11.3889H256.347C256.347 11.6553 256.347 11.9217 256.347 12.1881C256.347 12.4367 256.347 12.6765 256.347 12.9073V23.0039H252.591Z"
        fill="black" />
    <path
        d="M2.01791 14.1264V23.207H9.08066H16.1434V21.4413V19.7261L11.5022 19.5748L6.81049 19.4234V17.6577V15.892L10.7454 15.7407L14.63 15.5894V13.8741V12.1084H10.5437H6.5078L6.65915 10.4436L6.81049 8.82931L11.2499 8.67796L15.6389 8.52662V6.81138V5.04569H8.82842H2.01791V14.1264Z"
        fill="black" />
    <path
        d="M21.6927 14.1264V23.207H28.5032H35.3137V21.4413V19.7261L30.9247 19.5748L26.4853 19.4234L26.334 12.2093L26.1826 5.04569H23.9629H21.6927V14.1264Z"
        fill="black" />
    <path d="M39.854 14.1264V23.207H42.1242H44.3944V14.1264V5.04569H42.1242H39.854V14.1264Z"
        fill="black" />
    <path
        d="M48.9347 6.76093V8.52662L51.6085 8.67796L54.2318 8.82931L54.3831 15.9929L54.5345 23.207H57.0064H59.4784L59.6297 15.9929L59.7811 8.82931L62.4548 8.67796L65.0781 8.52662V6.76093V5.04569H57.0064H48.9347V6.76093Z"
        fill="black" />
    <path
        d="M69.6185 14.1264V23.207H76.6812H83.744V21.4413V19.7261L79.1027 19.5748L74.411 19.4234V17.6577V15.892L78.346 15.7407L82.2305 15.5894V13.8741V12.1084H78.1442H74.1084L74.2597 10.4436L74.411 8.82931L78.8505 8.67796L83.2395 8.52662V6.81138V5.04569H76.429H69.6185V14.1264Z"
        fill="black" />
    <path
        d="M98.8784 14.1264V23.207H101.35H103.873L104.024 20.7855C104.175 18.6162 104.276 18.4145 105.437 18.4145C106.345 18.4145 107.152 19.0703 108.464 20.7855C110.179 23.1566 110.28 23.207 112.903 23.207H115.577L113.508 20.4324C111.591 17.8091 111.541 17.6577 112.499 17.1533C114.82 15.892 115.728 11.4526 114.215 8.52662C112.953 6.05466 110.128 5.04569 104.075 5.04569H98.8784V14.1264ZM109.321 9.68692C109.674 9.98961 109.977 10.9481 109.977 11.9066C109.977 13.9246 108.918 14.6308 105.992 14.6308H103.923V11.9571C103.923 10.4436 104.075 9.08155 104.327 8.87975C104.781 8.37527 108.464 8.98065 109.321 9.68692Z"
        fill="black" />
    <path d="M120.571 14.1264V23.207H122.841H125.111V14.1264V5.04569H122.841H120.571V14.1264Z"
        fill="black" />
    <path
        d="M131.67 14.1264V23.207H136.614C142.314 23.207 144.685 22.6521 146.804 20.836C148.973 19.0198 149.831 17.1028 149.831 14.1264C149.831 11.1499 148.973 9.23289 146.804 7.41676C144.685 5.60062 142.314 5.04569 136.614 5.04569H131.67V14.1264ZM143.121 9.88872C145.543 11.4526 145.493 16.8506 143.071 18.4145C142.415 18.8685 140.7 19.2216 139.186 19.3225L136.462 19.4234L136.311 14.6813C136.109 8.37527 136.109 8.37527 139.388 8.77886C140.801 8.98065 142.516 9.48513 143.121 9.88872Z"
        fill="black" />
    <path
        d="M155.38 14.1264V23.207H162.443H169.506V21.4413V19.7261L164.865 19.5748L160.173 19.4234V17.6577V15.892L164.108 15.7407L167.992 15.5894V13.8741V12.1084H163.906H159.87L160.022 10.4436L160.173 8.82931L164.612 8.67796L169.001 8.52662V6.81138V5.04569H162.191H155.38V14.1264Z"
        fill="black" />
    <path d="M0 39.9631V43.2031H94.32H188.64V39.9631V36.7231H94.32H0V39.9631Z" fill="black" />
    <path
        d="M200.246 42.137L200.246 42.137L200.245 42.1378C199.327 42.5574 198.376 42.4944 197.651 42.0756C196.925 41.656 196.434 40.8832 196.434 39.9044C196.434 38.9766 196.793 38.1133 197.405 37.7776C198.5 37.1008 199.66 37.0967 200.611 37.6781L200.611 37.6779L200.618 37.6824C200.683 37.7284 200.74 37.7723 200.785 37.8142C200.828 37.8549 200.868 37.8997 200.892 37.9484C200.918 37.9995 200.932 38.0674 200.9 38.1357C200.87 38.198 200.814 38.2333 200.766 38.2543C200.67 38.296 200.524 38.3151 200.345 38.323C200.161 38.3311 199.923 38.3277 199.632 38.3151L199.631 38.315C198.646 38.2658 197.907 38.5505 197.518 38.9857C197.325 39.2022 197.216 39.4574 197.202 39.7348C197.189 40.0124 197.27 40.3209 197.473 40.6431C197.842 41.1957 198.545 41.4925 199.63 41.4434C200.021 41.4182 200.32 41.4023 200.532 41.4007C200.638 41.3999 200.726 41.4026 200.794 41.4103C200.828 41.4142 200.86 41.4197 200.889 41.4278C200.916 41.4354 200.95 41.448 200.979 41.4724C201.013 41.5007 201.041 41.5466 201.037 41.6049C201.034 41.6536 201.009 41.6901 200.992 41.7114C200.956 41.7546 200.899 41.7949 200.839 41.8325C200.712 41.9108 200.51 42.0114 200.246 42.137Z"
        fill="black" stroke="black" stroke-width="0.252" />
    <path
        d="M204.516 39.6014L204.516 39.6013L204.518 39.5965C204.822 38.9642 205.126 38.3802 205.381 37.9532C205.508 37.7402 205.625 37.5628 205.725 37.4373C205.775 37.3748 205.823 37.3214 205.869 37.2823C205.909 37.2483 205.971 37.2044 206.044 37.2044C206.087 37.2044 206.124 37.22 206.15 37.2351C206.177 37.2508 206.203 37.2714 206.226 37.2933C206.273 37.3371 206.323 37.3973 206.375 37.4683C206.479 37.6111 206.602 37.8136 206.735 38.0583C207.002 38.5483 207.319 39.22 207.623 39.9535C207.951 40.6601 208.169 41.2226 208.254 41.549C208.275 41.6307 208.289 41.7028 208.294 41.7612C208.296 41.7902 208.296 41.8208 208.291 41.8498C208.287 41.8762 208.276 41.919 208.241 41.9532C208.198 41.9947 208.144 42.0019 208.1 41.9929C208.063 41.9852 208.032 41.9662 208.01 41.9499C207.964 41.9164 207.915 41.8633 207.863 41.7981L207.863 41.7981L207.862 41.7968C207.703 41.5927 207.409 41.389 207.059 41.2357C206.712 41.0832 206.325 40.9878 205.994 40.9878C205.662 40.9878 205.29 41.0831 204.969 41.2343C204.645 41.3871 204.395 41.5871 204.288 41.7806L204.288 41.7806L204.287 41.7815C204.179 41.9721 204.088 42.1232 204.012 42.2363C203.939 42.3462 203.875 42.4301 203.821 42.4773C203.806 42.4898 203.789 42.5027 203.77 42.513C203.752 42.5228 203.723 42.5347 203.688 42.5342C203.647 42.5336 203.609 42.5167 203.582 42.487C203.558 42.461 203.548 42.4317 203.543 42.4118C203.533 42.3729 203.535 42.3296 203.539 42.2922C203.543 42.2518 203.551 42.2047 203.563 42.1524C203.654 41.7419 203.987 40.8361 204.516 39.6014ZM207.961 41.7194L208.024 41.6696C208.02 41.652 208.015 41.6329 208.01 41.6124C208.006 41.5977 208.002 41.5825 207.997 41.5667L207.961 41.7194ZM206.369 40.1335L206.369 40.1335L206.371 40.1332C206.549 40.0951 206.667 40.063 206.741 40.0267C206.81 39.9928 206.813 39.9699 206.814 39.9559C206.817 39.9214 206.801 39.8532 206.727 39.722C206.657 39.5962 206.547 39.4344 206.396 39.2198C206.231 38.9918 206.109 38.8274 206.012 38.7191C205.963 38.665 205.925 38.6296 205.895 38.6081C205.864 38.5864 205.851 38.5851 205.849 38.5851C205.849 38.5851 205.849 38.5851 205.849 38.585C205.849 38.585 205.849 38.585 205.849 38.5852C205.847 38.5857 205.843 38.5875 205.836 38.5933C205.82 38.6062 205.798 38.632 205.769 38.6799C205.711 38.7759 205.645 38.9262 205.556 39.1416C205.457 39.414 205.402 39.6282 205.388 39.7921C205.373 39.9575 205.402 40.0519 205.448 40.1067C205.492 40.1603 205.574 40.2026 205.73 40.2118C205.886 40.221 206.096 40.1956 206.369 40.1335Z"
        fill="black" stroke="black" stroke-width="0.252" />
    <path
        d="M211.619 39.9591L211.619 39.9591L211.619 39.9572L211.619 39.9571C211.606 39.3157 211.597 38.8253 211.613 38.4537C211.63 38.0859 211.673 37.8125 211.779 37.6178C211.893 37.4099 212.07 37.3065 212.308 37.2563C212.535 37.208 212.834 37.2054 213.208 37.2054C214.074 37.2054 214.794 37.56 215.205 38.0862C215.619 38.6156 215.716 39.3145 215.335 39.9678L215.335 39.9681L215.328 39.9775C215.22 40.1292 215.135 40.3949 215.099 40.7013C215.062 41.0047 215.075 41.3283 215.146 41.5864L215.146 41.5864L215.146 41.5875C215.209 41.8263 215.254 42.0114 215.276 42.1393C215.287 42.2018 215.293 42.2601 215.29 42.3074C215.288 42.3305 215.284 42.3621 215.268 42.3926C215.251 42.4275 215.216 42.4638 215.162 42.4746C215.116 42.4839 215.077 42.4696 215.054 42.4589C215.03 42.4472 215.008 42.4313 214.989 42.4156C214.95 42.3839 214.906 42.3388 214.859 42.2845C214.763 42.1758 214.635 42.0129 214.473 41.8007C214.281 41.5854 214.028 41.3808 213.769 41.2303C213.506 41.0774 213.251 40.9888 213.057 40.9888C212.893 40.9888 212.694 41.0726 212.519 41.2182C212.346 41.3629 212.214 41.5546 212.171 41.7478L212.171 41.7478L212.168 41.7566C212.149 41.8211 212.126 41.8822 212.094 41.9245C212.079 41.9451 212.049 41.9787 212.001 41.9919C211.942 42.0077 211.891 41.9849 211.861 41.9579C211.834 41.9345 211.817 41.9053 211.807 41.8834C211.795 41.8595 211.786 41.8326 211.778 41.8047C211.761 41.7488 211.747 41.6777 211.734 41.5949C211.682 41.2649 211.644 40.6904 211.619 39.9591ZM213.41 40.2323C214.059 40.2323 214.515 39.9685 214.714 39.6322C214.907 39.3043 214.875 38.8744 214.481 38.48C213.973 37.9724 213.427 37.8351 213.024 37.9566C212.628 38.0759 212.325 38.4589 212.325 39.0971C212.325 39.6023 212.391 39.8691 212.535 40.0185C212.678 40.1664 212.931 40.2323 213.41 40.2323Z"
        fill="black" stroke="black" stroke-width="0.252" />
    <path
        d="M222.718 39.9587L222.718 39.9587L222.718 39.9569C222.705 39.3148 222.698 38.8243 222.718 38.4523C222.738 38.0837 222.785 37.8113 222.891 37.6174C223.004 37.4111 223.176 37.3069 223.405 37.2561C223.624 37.2076 223.907 37.2051 224.256 37.2051C225.239 37.2051 226.024 37.5283 226.458 38.0375C226.899 38.5541 226.963 39.2442 226.534 39.9176C226.391 40.1808 226.282 40.5063 226.228 40.8268C226.173 41.1506 226.175 41.4571 226.243 41.6839L226.244 41.6845L226.245 41.6882C226.307 41.8995 226.355 42.0622 226.382 42.1719C226.396 42.2259 226.406 42.2741 226.409 42.3111C226.411 42.3274 226.413 42.3551 226.406 42.3834C226.402 42.398 226.394 42.4238 226.371 42.4474C226.345 42.4749 226.31 42.4893 226.274 42.4893C226.243 42.4893 226.219 42.4789 226.207 42.4721C226.193 42.4648 226.182 42.4563 226.174 42.4496C226.158 42.4362 226.143 42.42 226.13 42.4044C226.103 42.3727 226.071 42.3283 226.033 42.2741C225.958 42.1653 225.853 42.0033 225.716 41.7909L225.715 41.7893C225.576 41.5813 225.352 41.3796 225.094 41.2299C224.836 41.0798 224.555 40.9884 224.307 40.9884C224.086 40.9884 223.847 41.0776 223.65 41.2225C223.452 41.368 223.311 41.5586 223.269 41.7474L223.27 41.7475L223.267 41.7563C223.248 41.8207 223.224 41.8818 223.193 41.9242C223.178 41.9447 223.148 41.9784 223.099 41.9915C223.04 42.0074 222.99 41.9845 222.959 41.9576C222.932 41.9342 222.916 41.905 222.905 41.883C222.894 41.8591 222.884 41.8322 222.876 41.8043C222.86 41.7484 222.846 41.6773 222.833 41.5946C222.781 41.2645 222.743 40.69 222.718 39.9587ZM224.508 40.232C225.158 40.232 225.614 39.9681 225.812 39.6318C226.006 39.3039 225.974 38.874 225.58 38.4796C225.072 37.972 224.525 37.8347 224.122 37.9562C223.726 38.0755 223.424 38.4585 223.424 39.0968C223.424 39.6019 223.49 39.8687 223.634 40.0182C223.777 40.166 224.029 40.232 224.508 40.232Z"
        fill="black" stroke="black" stroke-width="0.252" />
    <path
        d="M229.862 42.5028L229.73 42.5098V42.377V39.8545V37.3321V37.1993L229.862 37.2063L231.778 37.3071C231.778 37.3071 231.778 37.3071 231.778 37.3071C232.231 37.3197 232.572 37.3292 232.804 37.3395C232.92 37.3446 233.011 37.3501 233.075 37.3564C233.107 37.3596 233.136 37.3632 233.159 37.3678C233.171 37.3701 233.184 37.3732 233.197 37.3777C233.206 37.3807 233.232 37.3901 233.256 37.4133C233.269 37.4267 233.287 37.4507 233.293 37.4858C233.298 37.5227 233.288 37.554 233.274 37.5751C233.254 37.6086 233.223 37.6238 233.215 37.6278L233.215 37.6279C233.192 37.6394 233.164 37.6471 233.141 37.6526C233.091 37.6647 233.016 37.6778 232.92 37.6924C232.727 37.7218 232.433 37.7597 232.043 37.81L232.042 37.8101C231.547 37.8845 231.148 38.0073 230.876 38.1607C230.601 38.3164 230.486 38.485 230.486 38.6438C230.486 38.8029 230.589 38.9576 230.851 39.0855C231.112 39.2135 231.509 39.3002 232.03 39.3251L233.643 39.3755L233.655 39.6264L232.041 39.8282C231.438 39.9036 231.048 40.0146 230.81 40.1789C230.694 40.2591 230.615 40.3514 230.564 40.4594C230.513 40.5684 230.486 40.7002 230.486 40.8635C230.486 41.0268 230.513 41.1586 230.564 41.2676C230.615 41.3756 230.694 41.4679 230.81 41.5481C231.048 41.7125 231.438 41.8234 232.041 41.8988L232.041 41.8989L232.043 41.8991C232.433 41.9493 232.727 41.9873 232.92 42.0167C233.016 42.0313 233.091 42.0444 233.141 42.0565C233.164 42.062 233.192 42.0697 233.215 42.0812L233.215 42.0813C233.223 42.0853 233.254 42.1005 233.274 42.134C233.288 42.1551 233.298 42.1864 233.293 42.2233C233.287 42.2583 233.269 42.2824 233.256 42.2958C233.232 42.319 233.206 42.3284 233.197 42.3314C233.184 42.3359 233.171 42.339 233.159 42.3413C233.136 42.3459 233.107 42.3495 233.075 42.3527C233.011 42.359 232.92 42.3645 232.804 42.3696C232.572 42.3799 232.231 42.3894 231.778 42.402L231.778 42.402L229.862 42.5028Z"
        fill="black" stroke="black" stroke-width="0.252" />
    <path
        d="M236.893 39.8548L236.893 39.8546L236.843 37.0799L236.836 36.7101L237.067 36.9989L238.681 39.0163L240.116 40.7649L240.376 39.0764L240.376 39.0764L240.376 39.0754C240.451 38.6098 240.509 38.2603 240.553 38.0399C240.574 37.9319 240.594 37.8464 240.613 37.7932C240.618 37.7793 240.625 37.7641 240.633 37.7497C240.639 37.7385 240.654 37.713 240.681 37.6937C240.697 37.6828 240.721 37.671 240.752 37.6695C240.784 37.6679 240.812 37.678 240.832 37.6915C240.867 37.7144 240.882 37.7471 240.887 37.7586C240.9 37.7876 240.906 37.8231 240.911 37.854C240.916 37.8883 240.921 37.9306 240.925 37.9798C240.933 38.0786 240.94 38.2126 240.946 38.3817C240.957 38.7162 240.967 39.1952 240.979 39.8263L240.979 39.8498L240.979 39.85L241.03 42.6247L241.037 42.9945L240.806 42.7057L239.192 40.6884L237.757 38.9397L237.497 40.6282L237.497 40.6282L237.497 40.6292C237.421 41.0948 237.364 41.4444 237.32 41.6647C237.299 41.7727 237.279 41.8582 237.259 41.9114C237.254 41.9253 237.248 41.9406 237.24 41.9549C237.234 41.9661 237.219 41.9916 237.191 42.0109C237.176 42.0218 237.152 42.0336 237.121 42.0351C237.089 42.0367 237.061 42.0266 237.041 42.0131C237.006 41.9902 236.991 41.9575 236.986 41.946C236.973 41.9171 236.966 41.8815 236.962 41.8506C236.956 41.8163 236.952 41.774 236.948 41.7248C236.94 41.626 236.933 41.492 236.927 41.3229C236.916 40.9884 236.906 40.5094 236.894 39.8784L236.893 39.8548Z"
        fill="black" stroke="black" stroke-width="0.252" />
    <path
        d="M244.667 37.5132C244.666 37.5126 244.666 37.5123 244.666 37.5123L244.667 37.5132ZM244.663 37.688C244.661 37.6888 244.662 37.6887 244.664 37.6877L244.663 37.688ZM246.428 42.6323L246.176 42.635L246.025 40.2647C245.949 39.2783 245.849 38.7115 245.667 38.3659C245.579 38.1981 245.472 38.0844 245.338 38.0001C245.203 37.9146 245.034 37.8557 244.815 37.8068C244.738 37.7939 244.675 37.7805 244.627 37.7661C244.603 37.7589 244.579 37.7505 244.558 37.7404C244.541 37.7319 244.51 37.7154 244.487 37.6856C244.475 37.6689 244.461 37.6442 244.458 37.6123C244.455 37.5792 244.464 37.5499 244.477 37.5274C244.5 37.4889 244.535 37.4698 244.552 37.4616C244.591 37.4427 244.643 37.4301 244.697 37.4203C244.917 37.3803 245.368 37.3553 245.997 37.3552C246.627 37.3301 247.103 37.3422 247.367 37.3819C247.434 37.3918 247.492 37.4042 247.539 37.4204C247.562 37.4285 247.586 37.439 247.608 37.4535C247.629 37.4669 247.659 37.4913 247.676 37.5317C247.696 37.5791 247.689 37.6273 247.668 37.6646C247.651 37.6967 247.625 37.7182 247.606 37.732C247.566 37.7599 247.511 37.7826 247.452 37.8026L247.452 37.8033L247.438 37.8062C247.28 37.8402 247.156 37.9007 247.056 37.9933C246.954 38.0866 246.869 38.2192 246.798 38.4083C246.655 38.7915 246.579 39.3785 246.529 40.2622L246.428 42.6323Z"
        fill="black" stroke="black" stroke-width="0.252" />
    <path
        d="M251.433 39.6014L251.433 39.6013L251.435 39.5965C251.738 38.9642 252.043 38.3802 252.298 37.9532C252.425 37.7402 252.542 37.5628 252.642 37.4373C252.691 37.3748 252.74 37.3214 252.786 37.2823C252.826 37.2483 252.888 37.2044 252.961 37.2044C253.004 37.2044 253.041 37.22 253.067 37.2351C253.094 37.2508 253.12 37.2714 253.143 37.2933C253.19 37.3371 253.24 37.3973 253.291 37.4683C253.395 37.6111 253.518 37.8136 253.652 38.0583C253.919 38.5483 254.236 39.22 254.539 39.9535C254.867 40.6601 255.085 41.2226 255.17 41.549C255.192 41.6307 255.206 41.7028 255.21 41.7612C255.213 41.7902 255.213 41.8208 255.208 41.8498C255.204 41.8762 255.193 41.919 255.157 41.9532C255.115 41.9947 255.06 42.0019 255.017 41.9929C254.98 41.9852 254.949 41.9662 254.927 41.9499C254.881 41.9164 254.832 41.8633 254.78 41.7981L254.78 41.7981L254.779 41.7968C254.62 41.5927 254.326 41.389 253.976 41.2357C253.628 41.0832 253.242 40.9878 252.911 40.9878C252.579 40.9878 252.207 41.0831 251.886 41.2343C251.562 41.3871 251.312 41.5871 251.205 41.7806L251.205 41.7806L251.204 41.7815C251.096 41.9721 251.005 42.1232 250.929 42.2363C250.856 42.3462 250.792 42.4301 250.737 42.4773C250.723 42.4898 250.706 42.5027 250.687 42.513C250.669 42.5228 250.64 42.5347 250.604 42.5342C250.564 42.5336 250.526 42.5167 250.499 42.487C250.475 42.461 250.464 42.4317 250.46 42.4118C250.45 42.3729 250.452 42.3296 250.455 42.2922C250.46 42.2518 250.468 42.2047 250.48 42.1524C250.571 41.7419 250.904 40.8361 251.433 39.6014ZM254.878 41.7194L254.94 41.6696C254.936 41.652 254.932 41.6329 254.926 41.6124C254.923 41.5977 254.918 41.5825 254.914 41.5667L254.878 41.7194ZM253.286 40.1335L253.286 40.1335L253.288 40.1332C253.466 40.0951 253.583 40.063 253.657 40.0267C253.726 39.9928 253.73 39.9699 253.731 39.9559C253.734 39.9214 253.717 39.8532 253.644 39.722C253.574 39.5962 253.464 39.4344 253.313 39.2198C253.148 38.9918 253.026 38.8274 252.929 38.7191C252.88 38.665 252.842 38.6296 252.812 38.6081C252.781 38.5864 252.767 38.5851 252.766 38.5851C252.766 38.5851 252.766 38.5851 252.766 38.585C252.766 38.585 252.766 38.585 252.765 38.5852C252.764 38.5857 252.76 38.5875 252.753 38.5933C252.737 38.6062 252.715 38.632 252.686 38.6799C252.627 38.7759 252.562 38.9262 252.473 39.1416C252.374 39.414 252.319 39.6282 252.305 39.7921C252.29 39.9575 252.319 40.0519 252.364 40.1067C252.409 40.1603 252.491 40.2026 252.647 40.2118C252.803 40.221 253.013 40.1956 253.286 40.1335Z"
        fill="black" stroke="black" stroke-width="0.252" />
    <path
        d="M258.586 39.6984L258.586 39.6984L258.687 37.0751L258.939 37.0719L259.09 39.441C259.14 39.9696 259.187 40.3769 259.247 40.695C259.308 41.0143 259.38 41.2334 259.476 41.3909C259.658 41.691 259.943 41.7986 260.549 41.8995L260.552 41.9001C260.852 41.9501 261.081 41.9882 261.23 42.0186C261.304 42.0336 261.365 42.048 261.408 42.0627C261.426 42.0689 261.455 42.0802 261.48 42.1001C261.492 42.1099 261.518 42.1337 261.529 42.1745C261.542 42.2244 261.524 42.2674 261.502 42.2937C261.483 42.3156 261.462 42.3273 261.451 42.3328C261.438 42.3393 261.425 42.3438 261.414 42.3472C261.392 42.3539 261.366 42.3592 261.339 42.3638C261.284 42.3731 261.209 42.3818 261.115 42.3905C260.926 42.408 260.651 42.427 260.287 42.4521L260.285 42.4522L260.285 42.4523L260.28 42.4524L258.615 42.5029L258.48 42.507L258.485 42.3722L258.586 39.6984Z"
        fill="black" stroke="black" stroke-width="0.252" />
    <path
        d="M267.087 42.0744C268.449 41.1663 268.348 40.3592 266.733 39.8042C264.816 39.1484 264.564 37.5845 266.431 37.9376C267.087 38.089 267.541 37.9881 267.389 37.7863C266.986 37.1305 265.472 37.2314 264.766 37.9376C263.807 38.8962 264.009 39.2997 265.977 40.1069L267.087 42.0744ZM265.928 40.2233C265.435 40.021 265.047 39.8417 264.758 39.6706C264.472 39.5011 264.269 39.3308 264.164 39.1397C264.053 38.9375 264.061 38.7292 264.16 38.5148C264.255 38.3083 264.435 38.0903 264.677 37.8485C265.057 37.4684 265.644 37.2583 266.183 37.2254C266.455 37.2089 266.721 37.2366 266.949 37.3147C267.176 37.3922 267.373 37.5223 267.494 37.7157C267.521 37.7532 267.542 37.7994 267.544 37.8524C267.546 37.9109 267.524 37.9615 267.49 38.0001C267.429 38.0687 267.329 38.1016 267.235 38.1184C267.036 38.154 266.741 38.1383 266.405 38.061C265.951 37.9754 265.651 38.0118 265.479 38.1002C265.394 38.1433 265.343 38.1977 265.314 38.2562C265.284 38.3149 265.274 38.3869 265.288 38.4725C265.316 38.6473 265.446 38.869 265.698 39.0918C265.948 39.3125 266.308 39.5256 266.774 39.685L266.774 39.6851C267.185 39.8262 267.508 39.9863 267.739 40.166C267.969 40.346 268.116 40.5534 268.151 40.7885C268.186 41.0242 268.104 41.2605 267.934 41.4896C267.765 41.7178 267.503 41.948 267.156 42.1792L267.156 42.1793L267.154 42.1807C266.546 42.5677 265.839 42.4994 265.012 42.0862L265.928 40.2233ZM264.361 41.6825C264.361 41.6826 264.362 41.6825 264.364 41.6821L264.361 41.6825ZM264.418 41.502C264.418 41.502 264.418 41.5024 264.419 41.5034C264.418 41.5024 264.418 41.502 264.418 41.502Z"
        fill="black" stroke="black" stroke-width="0.252" />
</svg>
    